/* XPM */
static char * compass_xpm[] = {
"62 62 529 2",
"  	c None",
". 	c #FEFEFE",
"+ 	c #FFFFFF",
"@ 	c #FDDFDF",
"# 	c #F76060",
"$ 	c #E3E3FE",
"% 	c #7F7FFB",
"& 	c #DB9FBE",
"* 	c #F42020",
"= 	c #DBBEDF",
"- 	c #A4A4FC",
"; 	c #A8A8FC",
"> 	c #2626F9",
", 	c #7474FB",
"' 	c #7F8FFC",
") 	c #DBB0BF",
"! 	c #F64141",
"~ 	c #9EBEFE",
"{ 	c #D9D9FE",
"] 	c #1919F9",
"^ 	c #6767FB",
"/ 	c #E8E8FE",
"( 	c #ABABFD",
"_ 	c #9494FC",
": 	c #D2D2FD",
"< 	c #5656FB",
"[ 	c #7F8CFC",
"} 	c #7FC1FE",
"| 	c #40A2FE",
"1 	c #A3D2FE",
"2 	c #0083FE",
"3 	c #3FA2FE",
"4 	c #F98080",
"5 	c #3DA1FF",
"6 	c #2495FE",
"7 	c #1A90FE",
"8 	c #65B5FE",
"9 	c #7FACFE",
"0 	c #6A6AFB",
"a 	c #D4D4FD",
"b 	c #EBEBFE",
"c 	c #ECECFE",
"d 	c #2C2CFA",
"e 	c #5353FA",
"f 	c #7FABFD",
"g 	c #BEE0FE",
"h 	c #2897FE",
"i 	c #1F93FE",
"j 	c #9ED0FE",
"k 	c #0084FF",
"l 	c #69B6FE",
"m 	c #7F8AFC",
"n 	c #1313F9",
"o 	c #9B9BFC",
"p 	c #EEEEFE",
"q 	c #BEBEFD",
"r 	c #4040FA",
"s 	c #7FAAFD",
"t 	c #2B99FE",
"u 	c #6CB8FE",
"v 	c #515BFB",
"w 	c #DAADCF",
"x 	c #FEEEEE",
"y 	c #A1A1FC",
"z 	c #1010F9",
"A 	c #D0D0FD",
"B 	c #DAEDFE",
"C 	c #2D9AFE",
"D 	c #BEC7FD",
"E 	c #4F4FFA",
"F 	c #3030FA",
"G 	c #F0F0FE",
"H 	c #F1F1FE",
"I 	c #7171FB",
"J 	c #4E56FB",
"K 	c #6FB9FE",
"L 	c #2F9BFE",
"M 	c #7FA8FD",
"N 	c #0E0EF9",
"O 	c #A5A5FC",
"P 	c #EEB2BF",
"Q 	c #7F86FC",
"R 	c #309BFE",
"S 	c #71A0FD",
"T 	c #B2B2FD",
"U 	c #FCBFBF",
"V 	c #F4F4FE",
"W 	c #CBCBFD",
"X 	c #63B4FE",
"Y 	c #72A0FD",
"Z 	c #4B4BFA",
"` 	c #B5B5FD",
" .	c #73A0FD",
"..	c #349DFE",
"+.	c #4A50FB",
"@.	c #6C6CFB",
"#.	c #7676FB",
"$.	c #74A0FD",
"%.	c #359DFE",
"&.	c #494EFA",
"*.	c #E9ADBF",
"=.	c #F6F6FE",
"-.	c #8888FC",
";.	c #B5BAFD",
">.	c #75A0FD",
",.	c #B7B7FD",
"'.	c #BBBBBB",
").	c #7A7A7A",
"!.	c #454545",
"~.	c #7F7F7F",
"{.	c #383840",
"].	c #000073",
"^.	c #004C92",
"/.	c #007DF1",
"(.	c #003A71",
"_.	c #00284E",
":.	c #00396F",
"<.	c #000811",
"[.	c #006CD1",
"}.	c #0058AA",
"|.	c #001529",
"1.	c #000000",
"2.	c #005AAF",
"3.	c #0066C5",
"4.	c #000F1E",
"5.	c #00529F",
"6.	c #0073DE",
"7.	c #00305D",
"8.	c #001223",
"9.	c #002E5A",
"0.	c #001325",
"a.	c #0056A6",
"b.	c #004280",
"c.	c #00488C",
"d.	c #002140",
"e.	c #6E3A40",
"f.	c #4986BE",
"g.	c #000409",
"h.	c #3838EA",
"i.	c #F7F7FE",
"j.	c #C4C4C4",
"k.	c #444444",
"l.	c #7B7B7B",
"m.	c #BCBCBC",
"n.	c #434343",
"o.	c #7E7E7E",
"p.	c #B9B9B9",
"q.	c #494949",
"r.	c #B1B1FD",
"s.	c #0808F1",
"t.	c #373B40",
"u.	c #0068C8",
"v.	c #007DF2",
"w.	c #001A33",
"x.	c #002F5B",
"y.	c #000912",
"z.	c #006CD2",
"A.	c #002B53",
"B.	c #0075E3",
"C.	c #001F3D",
"D.	c #0061BB",
"E.	c #004586",
"F.	c #001B35",
"G.	c #006ACE",
"H.	c #003568",
"I.	c #0070DA",
"J.	c #006ACD",
"K.	c #00060D",
"L.	c #DC7373",
"M.	c #54A2F3",
"N.	c #003D77",
"O.	c #77A0FD",
"P.	c #45454B",
"Q.	c #767676",
"R.	c #FCFCFC",
"S.	c #FAFAFA",
"T.	c #080808",
"U.	c #F8F8FE",
"V.	c #007EF3",
"W.	c #001A34",
"X.	c #000D1A",
"Y.	c #0055A5",
"Z.	c #006DD4",
"`.	c #00417E",
" +	c #0055A4",
".+	c #003362",
"++	c #4D759B",
"@+	c #3F75A7",
"#+	c #0063BF",
"$+	c #389FFE",
"%+	c #464AFA",
"&+	c #00000B",
"*+	c #3B3B3B",
"=+	c #C0C0C0",
"-+	c #FDFDFD",
";+	c #7C7C7C",
">+	c #868686",
",+	c #70BAFE",
"'+	c #0057A9",
")+	c #002E59",
"!+	c #0057A8",
"~+	c #003A70",
"{+	c #0068C9",
"]+	c #003D76",
"^+	c #002447",
"/+	c #000F1D",
"(+	c #0072DD",
"_+	c #001122",
":+	c #0075E2",
"<+	c #001426",
"[+	c #0077E6",
"}+	c #004D94",
"|+	c #E8565D",
"1+	c #BF3131",
"2+	c #0D0D0D",
"3+	c #F0F8FE",
"4+	c #4B4B4B",
"5+	c #3C3C3C",
"6+	c #FBFBFB",
"7+	c #030303",
"8+	c #C2C2C2",
"9+	c #F9F9FE",
"0+	c #78A0FD",
"a+	c #007EF4",
"b+	c #004F98",
"c+	c #001930",
"d+	c #0076E5",
"e+	c #001E3B",
"f+	c #0062BD",
"g+	c #00417F",
"h+	c #000E1B",
"i+	c #003464",
"j+	c #0058AB",
"k+	c #0056A7",
"l+	c #2D455B",
"m+	c #ADA9D0",
"n+	c #F61010",
"o+	c #ED3030",
"p+	c #5AA1F0",
"q+	c #0069CC",
"r+	c #00060C",
"s+	c #399FFE",
"t+	c #4548FA",
"u+	c #000047",
"v+	c #3D3D3D",
"w+	c #060606",
"x+	c #0079EA",
"y+	c #000C18",
"z+	c #001324",
"A+	c #0070D9",
"B+	c #0067C7",
"C+	c #003F7A",
"D+	c #004484",
"E+	c #002C56",
"F+	c #590000",
"G+	c #F10000",
"H+	c #E90000",
"I+	c #9AB1E0",
"J+	c #0069CA",
"K+	c #00050B",
"L+	c #001B36",
"M+	c #007FF5",
"N+	c #79A0FD",
"O+	c #434347",
"P+	c #FAFAFE",
"Q+	c #00315F",
"R+	c #0054A3",
"S+	c #006ED6",
"T+	c #002A51",
"U+	c #004688",
"V+	c #0060B9",
"W+	c #00203F",
"X+	c #0065C3",
"Y+	c #00396E",
"Z+	c #2A98FE",
"`+	c #AAAAD3",
" @	c #261313",
".@	c #530000",
"+@	c #E70000",
"@@	c #C6879F",
"#@	c #0F72CE",
"$@	c #007CF0",
"%@	c #002C55",
"&@	c #007AEC",
"*@	c #3AA0FE",
"=@	c #4446FA",
"-@	c #3C3CBF",
";@	c #BEBEC2",
">@	c #7F82FC",
",@	c #0080F7",
"'@	c #004687",
")@	c #0074E0",
"!@	c #003261",
"~@	c #002649",
"{@	c #000E1C",
"]@	c #0072DC",
"^@	c #001121",
"/@	c #0074E1",
"(@	c #006FD7",
"_@	c #003669",
":@	c #91A1D5",
"<@	c #FA5454",
"[@	c #F80000",
"}@	c #250000",
"|@	c #A7869D",
"1@	c #108BFE",
"2@	c #00519D",
"3@	c #0080F8",
"4@	c #7AA0FD",
"5@	c #BBBBFD",
"6@	c #040404",
"7@	c #3A5E7F",
"8@	c #0069CB",
"9@	c #004F99",
"0@	c #000A14",
"a@	c #006ED5",
"b@	c #0053A2",
"c@	c #006FD8",
"d@	c #282828",
"e@	c #E31616",
"f@	c #F60000",
"g@	c #8C0000",
"h@	c #110000",
"i@	c #007BEE",
"j@	c #001931",
"k@	c #00498E",
"l@	c #005CB3",
"m@	c #76BDFE",
"n@	c #8383C1",
"o@	c #404040",
"p@	c #FBFBFE",
"q@	c #4444FA",
"r@	c #8BA1D8",
"s@	c #FB5757",
"t@	c #C88398",
"u@	c #128CFE",
"v@	c #005DB4",
"w@	c #0066C6",
"x@	c #0065C4",
"y@	c #3F417E",
"z@	c #B9B9FA",
"A@	c #4345FA",
"B@	c #3BA0FE",
"C@	c #E28D9A",
"D@	c #F91919",
"E@	c #C98196",
"F@	c #138DFE",
"G@	c #7BA0FD",
"H@	c #7D7DFB",
"I@	c #7A7AFB",
"J@	c #7E82FC",
"K@	c #2294FE",
"L@	c #A2AFDB",
"M@	c #FB5A5A",
"N@	c #F20000",
"O@	c #CA8094",
"P@	c #148DFE",
"Q@	c #78BEFE",
"R@	c #0606F9",
"S@	c #BCBCFD",
"T@	c #BABEFD",
"U@	c #60B2FF",
"V@	c #DE6C7A",
"W@	c #EF0000",
"X@	c #EB2929",
"Y@	c #68A1E9",
"Z@	c #BC82C0",
"`@	c #FEFCFC",
" #	c #BFBFFD",
".#	c #B7DCFF",
"+#	c #9FB0DE",
"@#	c #F91E1E",
"##	c #EB2828",
"$#	c #6AA1E8",
"%#	c #BBBEFD",
"&#	c #FCFCFE",
"*#	c #4343FA",
"=#	c #78BEFF",
"-#	c #5DB1FE",
";#	c #DB7080",
">#	c #F90000",
",#	c #EB2727",
"'#	c #6CA1E7",
")#	c #7E81FC",
"!#	c #77A1E1",
"~#	c #FAA0A0",
"{#	c #EB2626",
"]#	c #6DA1E6",
"^#	c #7C7CFB",
"/#	c #75A1E2",
"(#	c #EB2222",
"_#	c #EA1E1E",
":#	c #F95F5F",
"<#	c #EB2525",
"[#	c #6FA1E5",
"}#	c #FEFDFD",
"|#	c #F97F7F",
"1#	c #F87F7F",
"2#	c #B8A2C2",
"3#	c #7ABFFE",
"4#	c #73A1E3",
"5#	c #EB2323",
"6#	c #EA1F1F",
"7#	c #F45E5E",
"8#	c #E80000",
"9#	c #EB2424",
"0#	c #71A1E4",
"a#	c #F68182",
"b#	c #FBBEBE",
"c#	c #F87D7D",
"d#	c #F64242",
"e#	c #B7A2C3",
"f#	c #F00000",
"g#	c #F58183",
"h#	c #F64040",
"i#	c #329CFE",
"j#	c #EE4B4B",
"k#	c #F77E7E",
"l#	c #D07586",
"m#	c #1B91FE",
"n#	c #188FFE",
"o#	c #CD7A8C",
"p#	c #FA4343",
"q#	c #D06F80",
"r#	c #1C91FE",
"s#	c #178FFE",
"t#	c #CD7B8E",
"u#	c #FB5F5F",
"v#	c #7BA1E0",
"w#	c #168EFE",
"x#	c #CC7D90",
"y#	c #DD8F9F",
"z#	c #3CA1FE",
"A#	c #BEC0FD",
"B#	c #158EFE",
"C#	c #CB7E92",
"D#	c #60B2FE",
"E#	c #8282FC",
"F#	c #B9B9FD",
"G#	c #F91B1B",
"H#	c #0808F9",
"I#	c #E16774",
"J#	c #A1ACD8",
"K#	c #F91818",
"L#	c #A5ADD8",
"M#	c #2596FE",
"N#	c #BEC1FD",
"O#	c #62A1EC",
"P#	c #EC2C2C",
"Q#	c #F91616",
"R#	c #E58B96",
"S#	c #67B5FE",
"T#	c #8383FC",
"U#	c #60A1ED",
"V#	c #EC2D2D",
"W#	c #5EA1EE",
"X#	c #EC2E2E",
"Y#	c #EE0000",
"Z#	c #F91313",
"`#	c #E88A93",
" $	c #5CA1EF",
".$	c #EC2F2F",
"+$	c #FA5151",
"@$	c #97A0D2",
"#$	c #7FA3FD",
"$$	c #EC3030",
"%$	c #EE1010",
"&$	c #EB8890",
"*$	c #B8BCFD",
"=$	c #58A2F1",
"-$	c #ED3131",
";$	c #B7BEFD",
">$	c #F6BEC4",
",$	c #FEF9F9",
"'$	c #7272FB",
")$	c #7E86FC",
"!$	c #0C89FE",
"~$	c #C599B2",
"{$	c #ACA7CD",
"]$	c #B3B3FD",
"^$	c #76A0FD",
"/$	c #0B89FE",
"($	c #BDD3F2",
"_$	c #6D88CB",
":$	c #379EFE",
"<$	c #474BFA",
"[$	c #AFAFFD",
"}$	c #484DFA",
"|$	c #BFB6F4",
"1$	c #F2C4C8",
"2$	c #0A0AF9",
"3$	c #3535FA",
"4$	c #4B51FB",
"5$	c #339CFE",
"6$	c #0B0BF9",
"7$	c #F3F3FE",
"8$	c #3434FA",
"9$	c #8B92FC",
"0$	c #319CFE",
"a$	c #0C0CF9",
"b$	c #A9A9FC",
"c$	c #7FA7FD",
"d$	c #A3A3FC",
"e$	c #0F0FF9",
"f$	c #2E9AFF",
"g$	c #3131FA",
"h$	c #B0B0FD",
"i$	c #2F2FFA",
"j$	c #9BCEFE",
"k$	c #7070FB",
"l$	c #EDEDFE",
"m$	c #7F89FC",
"n$	c #6BB7FE",
"o$	c #5151FA",
"p$	c #1414F9",
"q$	c #E8F4FE",
"r$	c #68B6FE",
"s$	c #BDDFFE",
"t$	c #A9D5FE",
"u$	c #ADADFD",
"v$	c #EAEAFE",
"w$	c #1717F9",
"x$	c #7FADFE",
"y$	c #A7A7FC",
"z$	c #6666FB",
"A$	c #9E9EFC",
"B$	c #E7E7FE",
"C$	c #A2A2FC",
"D$	c #E2E2FE",
". + + + . . . . + . . . . . . . + . . . . . . . . . . . . . @ # + . . . . . . . . . . . . . . . . . . . . . . . . . . . . . ",
". + + + . . . . + . . . . . . . + . . . . . . . . . $ % % % & * = % % - . . . . . . . . . . . . . . . . . . . . . . . . . . ",
". + + + . . . . + . . . . . . . + . . . . . ; % > , $ % % ' ) ! ~ % % - { ] ^ % / . . . . . . . . . . . . . . . . . . . . . ",
". + + + . . . . + . . . . . . . + . . ( _ : < [ } | 1 2 2 2 3 4 5 2 2 6 7 8 9 % 0 a % b . . . . . . . . . . . . . . . . . . ",
". + + + . . . . + . . . . . . . + c d e f g h 2 2 2 2 2 2 2 i j k 2 2 2 2 2 2 2 l } m n o . . . . . . . . . . . . . . . . . ",
". + + + . . . . + . . . . . . p q r s t 2 2 2 2 2 2 2 2 2 2 2 2 k 2 2 2 2 2 2 2 2 2 2 u v w x . . . . . . . . . . . . . . . ",
". + + + . . . . + . . . . . y z A B 2 2 2 2 2 2 2 2 2 2 2 2 2 2 k 2 2 2 2 2 2 2 2 2 2 2 C D E F G . . . . . . . . . . . . . ",
". + + + . . . . + . . . H I J K k 2 2 2 2 2 2 2 2 2 2 2 2 2 2 2 k 2 2 2 2 2 2 2 2 2 2 2 2 2 L M N O . . . . . . . . . . . . ",
". + + + . . . . + . . . P Q R 2 k 2 2 2 2 2 2 2 2 2 2 2 2 2 2 2 k 2 2 2 2 2 2 2 2 2 2 2 2 2 2 2 S T U . . . . . . . . . . . ",
". + + + . . . . + V % r W X 2 2 k 2 2 2 2 2 2 2 2 2 2 2 2 2 2 2 k 2 2 2 2 2 2 2 2 2 2 2 2 2 2 2 2 Y Z , ` . . . . . . . . . ",
". + + + . . . . + V r  .2 2 2 2 k 2 2 2 2 2 2 2 2 2 2 2 2 2 2 2 k 2 2 2 2 2 2 2 2 2 2 2 2 2 2 2 2 2 ..+.@.. . . . . . . . . ",
". + + + . . . . + #.$.2 2 2 2 2 k 2 2 2 2 2 2 2 2 2 2 2 2 2 2 2 k 2 2 2 2 2 2 2 2 2 2 2 2 2 2 2 2 2 2 %.&.*.. . . . . . . . ",
". + + + . . . =.-.;.%.2 2 2 2 2 k 2 2 2 2 2 2 2 2 2 2 2 2 2 2 2 k 2 2 2 2 2 2 2 2 2 2 2 2 2 2 2 2 2 2 2 >.q ,.. . . . . . . ",
". + + '.).!.~.{.].^.2 2 /.(._.:.<.[.2 2 }.|.1.2.2 2 2 3.1.4.5.6.7.1.8.9.0.a.2 2 2 2 2 b.2 2 2 2 2 c.d.e.f.g.h.i.j.k.l.m.n.o.",
". + p.1.q.. r.s.t.u.2 v.w.x.2 2 7.y.z.2 2 A.1.2.2 2 B.8.1.C.2 2 D.1.E.2 F.1.G.2 2 2 H.1.I.2 2 2 J.K.L.M.u.N.O.r P.Q.. . n.R.",
". S.1.T.. U.r O.b.2 V.W.X.2 2 2 7.1.Y.2 Z.`.1.2.2 2  +.+1.D.2 2 C.1.3.2 F.1.G.2 2 Z.A.1.I.2 2 R ++1.@+2 2 #+$+%+&+*+S.. =+-+",
". ;+1.>+. . . ,+k 2 '+1.)+2 2 2 7.1.Y.2 }.!+1.~+2 {+]+^+/+(+2 2 C._+:+I.X.<+[+2 2 }+^.1.I.2 K |+1+2+1.'+2 2 2 3+4+1.5+6+. . ",
"R.1.7+8+9+r 0+2 k a+F.1.b+2 2 6.1.1.Y.2 b.z.1.c+d+9.B.8.e+2 2 f+1._+g+h+i+d+2 2 j+Z.k+1.l+m+n+o+p+q+r+1.j+2 2 s+t+u+1.v+R.. ",
"R.1.w++ ` t+s+2 k x+1.y+2 2 2 6.1.z+2 x+}+z.1.c+a.A+B+1.C+2 2 f+1.D+2 2 2 2 2 2 E+g+A.1.F+G+H+I+2 2 J+K+L+M+2 2 N+r O+1.'.. ",
"R.1.w+P+r N+2 2 k x+1.y+2 2 2 Q+1.R+2 S+'+2 T+y+b+2 U+1.V+2 2 W+1.X+2 2 2 2 2 Y+z.Z+`+ @.@+@@@#@$@2 2 %@1.&@2 #+*@=@-@7+;+. ",
". ;+7+;@>@*@,@'@k a+F.y+2 2 )@1.!@2 2 b.2 2 T+c+2 2 ~@{@]@2 2 W+^@/@2 2 2 2 (@_@:@<@[@}@1.|@1@2@R+2 2 }+1.&@2 ^+3@4@5@w+;+. ",
". R.;+6@~.7@E.2 k 2 '+r+8@$@c+Q+k 2 9@0@g+a@_@(@d+i+1.{@2@)@Q+1.^@b@2 2 2 c@y+d@e@f@g@h@1.Y+i@4.j@/.2 %@j+2 k@1.l@m@n@o@R.. ",
". + p@q@m@2 2 2 k 2 2 v.g+g+G.2 k 2 2 2 2 2 2 2 2 2 2 2 2 2 2 2 k 2 2 2 2 r@s@[@f@H++@t@u@2 2 #+2 c.g+v@2 2 w@,@x@g+y@z@. . ",
". + U.A@B@2 2 2 k 2 2 2 2 2 2 2 k 2 2 2 2 2 2 2 2 2 2 2 2 2 2 2 k 2 2 6 C@D@[@f@H++@E@F@2 2 2 2 2 2 2 2 2 2 2 2 2 2 G@H@. . ",
". + I@J@2 2 2 2 k 2 2 2 2 2 2 2 k 2 2 2 2 2 2 2 2 2 2 2 2 2 2 2 k K@L@M@[@[@N@H++@O@P@2 2 2 2 2 2 2 2 2 2 2 2 2 2 2 Q@R@P+. ",
". + S@T@2 2 2 2 k 2 2 2 2 2 2 2 k 2 2 2 2 2 2 2 2 2 2 2 2 2 2 2 U@V@[@[@[@W@+@+@X@Y@2 2 2 2 2 2 2 2 2 2 2 2 2 2 2 2 Q@Z@`@. ",
". +  #.#2 2 2 2 k 2 2 2 2 2 2 2 k 2 2 2 2 2 2 2 2 2 2 2 2 2 i +#@#[@[@[@W@+@+@##$#2 2 2 2 2 2 2 2 2 2 2 2 2 2 2 2 2 2 %#&#. ",
". &#*#=#2 2 2 2 k 2 2 2 2 2 2 2 k 2 2 2 2 2 2 2 2 2 2 2 2 -#;#[@>#[@f@H++@+@,#'#2 2 2 2 2 2 2 2 2 2 2 2 2 2 2 2 2 2 2 )#5@. ",
". P+R@=#2 2 2 2 k 2 2 2 2 2 2 2 k 2 2 2 2 2 2 2 2 2 2 2 !#~#[@[@>#f@H++@+@{#]#2 2 2 2 2 2 2 2 2 2 2 2 2 2 2 2 2 2 2 2 )#^#. ",
". P+R@=#2 2 2 2 k 2 2 2 2 2 2 2 k 2 2 2 2 2 2 2 2 2 2 /#(#_#:#[@f@H++@+@<#[#2 2 2 2 2 2 2 2 2 2 2 2 2 2 2 2 2 2 2 2 2 )#^#. ",
"}#|#1#2#3#2 2 2 k 2 2 2 2 2 2 2 k 2 2 2 2 2 2 2 2 2 4#5#+@+@6#7#8#+@+@9#0#2 2 2 2 2 2 2 2 2 2 2 2 2 2 2 2 2 2 2 2 3#} a#1#b#",
"|#c#d#|#e#*@2 2 k 2 2 2 2 2 2 2 k 2 2 2 2 2 2 2 2 0#9#+@+@+@f#:#_#+@5#4#2 2 2 2 2 2 2 2 2 2 2 2 2 2 2 2 2 2 2 2 2 3#g#1#h#1#",
". &#*#=#2 2 2 2 k 2 2 2 2 2 2 2 k 2 2 2 2 2 2 2 i#j#+@+@+@f#[@[@k#+@l#m#2 2 2 2 2 2 2 2 2 2 2 2 2 2 2 2 2 2 2 2 2 2 2 )#5@. ",
". P+R@=#2 2 2 2 k 2 2 2 2 2 2 2 k 2 2 2 2 2 2 n#o#+@+@H+N@[@[@[@p#q#r#2 2 2 2 2 2 2 2 2 2 2 2 2 2 2 2 2 2 2 2 2 2 2 2 )#^#. ",
". &#*#=#2 2 2 2 k 2 2 2 2 2 2 2 k 2 2 2 2 2 s#t#+@+@H+f@[@[@[@u#v#2 2 2 2 2 2 2 2 2 2 2 2 2 2 2 2 2 2 2 2 2 2 2 2 2 2 )#5@. ",
". +  #.#2 2 2 2 k 2 2 2 2 2 2 2 k 2 2 2 2 w#x#+@+@H+f@[@[@@#y#i k 2 2 2 2 2 2 2 2 2 2 2 2 2 2 2 2 2 2 2 2 2 2 2 2 2 z#A#&#. ",
". + S@T@2 2 2 2 k 2 2 2 2 2 2 2 k 2 2 2 B#C#+@+@W@[@[@[@V@D#2 2 k 2 2 2 2 2 2 2 2 2 2 2 2 2 2 2 2 2 2 2 2 2 2 2 2 2 Q@E#&#. ",
". + F#J@2 2 2 2 k 2 2 2 2 2 2 2 k 2 2 P@O@+@+@W@[@[@G#L@K@2 2 2 k 2 2 2 2 2 2 2 2 2 2 2 2 2 2 2 2 2 2 2 2 2 2 2 2 2 Q@*#&#. ",
". + U.H#m@2 2 2 k 2 2 2 2 2 2 2 k 2 F@E@+@+@W@[@[@I#X 2 2 2 2 2 k 2 2 2 2 2 2 2 2 2 2 2 2 2 2 2 2 2 2 2 2 2 2 2 2 2 J@I@. . ",
". + p@r 4@2 2 2 k 2 2 2 2 2 2 2 k 2 J#+@H+f@[@K#L#M#2 2 2 2 2 2 k 2 2 2 2 2 2 2 2 2 2 2 2 2 2 2 2 2 2 2 2 2 2 2 2 B@A@F#. . ",
". + + 5@N#*@2 2 k 2 2 2 2 2 2 2 k O#P#H+f@Q#R#S#2 2 2 2 2 2 2 2 k 2 2 2 2 2 2 2 2 2 2 2 2 2 2 2 2 2 2 2 2 2 2 2 2 m@T#p@. . ",
". + + P+>@*@2 2 k 2 2 2 2 2 2 2 U#V#H+f@<@:@2 2 2 2 2 2 2 2 2 2 k 2 2 2 2 2 2 2 2 2 2 2 2 2 2 2 2 2 2 2 2 2 2 2 2 4@5@. . . ",
". + + P+r N+2 2 k 2 2 2 2 2 2 W#X#Y#Z#`#Z+2 2 2 2 2 2 2 2 2 2 2 k 2 2 2 2 2 2 2 2 2 2 2 2 2 2 2 2 2 2 2 2 2 2 2 *@=@,.. . . ",
". + + + ` t+s+2 k 2 2 2 2 2  $.$Y#+$@$2 2 2 2 2 2 2 2 2 2 2 2 2 k 2 2 2 2 2 2 2 2 2 2 2 2 2 2 2 2 2 2 2 2 2 2 2 N+r P+. . . ",
". + + + 9+r #$$+k 2 2 2 2 p+$$%$&$C 2 2 2 2 2 2 2 2 2 2 2 2 2 2 k 2 2 2 2 2 2 2 2 2 2 2 2 2 2 2 2 2 2 2 2 2 2 s+t+` . . . . ",
". + + + .  #*$$+k 2 2 2 =$-$|+K k 2 2 2 2 2 2 2 2 2 2 2 2 2 2 2 k 2 2 2 2 2 2 2 2 2 2 2 2 2 2 2 2 2 2 2 2 2 2 ;$>$,$. . . . ",
". + + + . . '$)$k 2 2 !$~${$R 2 k 2 2 2 2 2 2 2 2 2 2 2 2 2 2 2 k 2 2 2 2 2 2 2 2 2 2 2 2 2 2 2 2 2 2 2 2 2 ,+N ]$. . . . . ",
". + + + . . G H#^$2 /$($_$2 2 2 k 2 2 2 2 2 2 2 2 2 2 2 2 2 2 2 k 2 2 2 2 2 2 2 2 2 2 2 2 2 2 2 2 2 2 2 2 :$<$'$. . . . . . ",
". + + + . . . [$}$| } ..2 2 2 2 k 2 2 2 2 2 2 2 2 2 2 2 2 2 2 2 k 2 2 2 2 2 2 2 2 2 2 2 2 2 2 2 2 2 2 2 2 ^$r i.. . . . . . ",
". + + + . . . . |$1$%.2 2 2 2 2 k 2 2 2 2 2 2 2 2 2 2 2 2 2 2 2 k 2 2 2 2 2 2 2 2 2 2 2 2 2 2 2 2 2 2 2 >.q =.. . . . . . . ",
". + + + . . . . + @.+...2 2 2 2 k 2 2 2 2 2 2 2 2 2 2 2 2 2 2 2 k 2 2 2 2 2 2 2 2 2 2 2 2 2 2 2 2 2 2 $.2$c . . . . . . . . ",
". + + + . . . . + V 3$4$5$2 2 2 k 2 2 2 2 2 2 2 2 2 2 2 2 2 2 2 k 2 2 2 2 2 2 2 2 2 2 2 2 2 2 2 2 2  .6$( . . . . . . . . . ",
". + + + . . . . + . 7$8$9$0$2 2 k 2 2 2 2 2 2 2 2 2 2 2 2 2 2 2 k 2 2 2 2 2 2 2 2 2 2 2 2 2 2 2 2 Y a$b$. . . . . . . . . . ",
". + + + . . . . + . . . P Q ,+2 k 2 2 2 2 2 2 2 2 2 2 2 2 2 2 2 k 2 2 2 2 2 2 2 2 2 2 2 2 2 2 R c$T  #. . . . . . . . . . . ",
". + + + . . . . + . . . . d$e$M f$2 2 2 2 2 2 2 2 2 2 2 2 2 2 2 k 2 2 2 2 2 2 2 2 2 2 2 2 2 K J g$H . . . . . . . . . . . . ",
". + + + . . . . + . . . . . h$i$y j$2 2 2 2 2 2 2 2 2 2 2 2 2 2 k 2 2 2 2 2 2 2 2 2 2 2 C D z k$G . . . . . . . . . . . . . ",
". + + + . . . . + . . . . . . . l$r m$n$2 2 2 2 2 2 2 2 2 2 2 2 k 2 2 2 2 2 2 2 2 2 t s o$w x . . . . . . . . . . . . . . . ",
". + + + . . . . + . . . . . . . + c @.p$_ q$r$2 2 2 2 2 2 2 3 s$k 2 2 2 2 2 2 h t$_ e d u$. . . . . . . . . . . . . . . . . ",
". + + + . . . . + . . . . . . . + . . v$_ : w$% x$} 1 2 2 2 3 4 5 2 2 6 } } [ < e a ( . . . . . . . . . . . . . . . . . . . ",
". + + + . . . . + . . . . . . . + . . . . . . y$z$3$$ % % % & ! A$% % - ]$> % B$. . . . . . . . . . . . . . . . . . . . . . ",
". + + + . . . . + . . . . . . . + . . . . . . . . . . . C$% & * = % D$. . . . . . . . . . . . . . . . . . . . . . . . . . . ",
". + + + . . . . + . . . . . . . + . . . . . . . . . . . . . @ # + . . . . . . . . . . . . . . . . . . . . . . . . . . . . . "};
